<?xml version="1.0" standalone="no"?>
<!DOCTYPE svg PUBLIC "-//W3C//DTD SVG 20010904//EN"
 "http://www.w3.org/TR/2001/REC-SVG-20010904/DTD/svg10.dtd">
<svg version="1.0" xmlns="http://www.w3.org/2000/svg"
 width="1124.000000pt" height="278.000000pt" viewBox="0 0 1124.000000 278.000000"
 preserveAspectRatio="xMidYMid meet">

<g transform="translate(0.000000,278.000000) scale(0.100000,-0.100000)"
fill="#000000" stroke="none">
<path d="M0 1390 l0 -1390 5620 0 5620 0 0 1390 0 1390 -5620 0 -5620 0 0
-1390z m11155 20 l0 -1265 -5542 -3 -5543 -2 0 1270 0 1270 5543 -2 5542 -3 0
-1265z"/>
<path d="M177 2573 c-4 -3 -7 -530 -7 -1170 l0 -1163 5440 0 5440 0 0 1170 0
1170 -5433 0 c-2989 0 -5437 -3 -5440 -7z m3280 -705 c24 -11 52 -31 63 -45
28 -36 60 -127 67 -194 l6 -59 -71 0 -71 0 -5 33 c-3 17 -7 52 -10 76 -9 82
-86 122 -169 87 -67 -27 -71 -50 -72 -366 0 -261 1 -277 22 -322 61 -133 223
-83 223 70 0 22 3 54 6 71 l7 31 70 0 70 0 -6 -72 c-14 -200 -96 -290 -263
-291 -129 -1 -212 58 -251 180 -24 72 -30 500 -9 601 19 93 50 148 102 185 70
49 204 56 291 15z m-2353 -120 c15 -79 47 -246 70 -373 24 -126 46 -221 49
-210 5 18 39 199 103 545 13 74 27 145 29 158 5 22 9 23 103 20 l97 -3 3 -492
2 -493 -23 -5 c-13 -4 -46 -5 -73 -3 l-49 3 -5 365 c-3 201 -8 347 -12 325 -4
-22 -25 -139 -47 -260 -22 -121 -48 -263 -57 -315 -10 -52 -22 -101 -27 -107
-10 -14 -75 -17 -93 -5 -10 7 -25 78 -104 516 -22 120 -42 221 -45 224 -3 3
-5 -164 -5 -372 l0 -377 -67 3 -68 3 -3 498 -2 497 99 0 98 0 27 -142z m1276
139 c0 -7 77 -364 179 -835 18 -79 29 -147 26 -152 -8 -13 -122 -13 -130 0 -8
13 -30 100 -45 178 l-13 62 -88 0 -88 0 -21 -97 c-36 -161 -27 -148 -103 -151
-52 -2 -67 0 -67 11 0 16 28 154 89 437 22 102 54 250 71 330 17 80 35 162 41
183 l10 37 69 0 c39 0 70 -2 70 -3z m1838 -214 l2 -213 120 0 120 0 2 213 3
212 70 0 70 0 0 -495 0 -495 -49 -3 c-27 -2 -60 -1 -73 3 l-23 5 -2 228 -3
227 -115 0 -115 0 -5 -230 -5 -230 -70 0 -70 0 -3 485 c-1 267 0 491 3 498 3
9 24 12 72 10 l68 -3 3 -212z m1080 -280 l-3 -498 -65 0 -65 0 -3 498 -2 497
70 0 70 0 -2 -497z m853 417 c10 -41 33 -151 53 -245 20 -93 60 -282 90 -418
38 -181 50 -250 41 -253 -7 -3 -39 -4 -71 -2 l-59 3 -25 120 -25 120 -91 3
-91 3 -17 -88 c-10 -48 -22 -105 -27 -125 l-10 -38 -64 0 c-35 0 -66 4 -70 9
-3 5 6 58 20 118 13 59 47 216 75 348 28 132 61 290 75 350 13 61 26 125 30
143 l7 33 71 -3 72 -3 16 -75z m744 58 c23 -102 106 -543 116 -620 7 -54 15
-98 19 -98 3 0 14 48 24 108 24 147 115 612 122 623 9 15 134 11 134 -3 0 -12
-34 -177 -116 -563 -20 -93 -48 -226 -63 -295 l-26 -125 -68 -3 c-81 -4 -73
-16 -117 193 -29 136 -76 355 -145 676 -14 63 -25 118 -25 122 0 4 31 7 70 7
64 0 70 -2 75 -22z m1275 -33 l0 -55 -120 0 -120 0 0 -160 0 -160 85 0 85 0 0
-50 0 -50 -85 0 -85 0 0 -180 0 -180 121 0 120 0 -3 -52 -3 -53 -190 0 -190 0
-3 485 c-1 267 0 491 3 498 3 9 52 12 195 12 l190 0 0 -55z m632 -387 l3 -443
123 -3 123 -3 -3 -52 -3 -52 -190 0 -190 0 -3 498 -2 497 70 0 70 0 2 -442z
m856 -5 l2 -443 121 0 120 0 -3 -52 -3 -53 -190 0 -190 0 -3 485 c-1 267 0
491 3 498 3 9 24 12 72 10 l68 -3 3 -442z m860 -50 l-3 -498 -65 0 -65 0 -3
498 -2 497 70 0 70 0 -2 -497z"/>
<path d="M2296 1593 c-4 -27 -16 -95 -26 -153 -10 -58 -22 -124 -25 -147 l-7
-43 72 0 72 0 -7 27 c-11 44 -55 316 -55 341 0 41 -18 23 -24 -25z"/>
<path d="M6057 1630 c-6 -14 -43 -246 -54 -337 l-6 -43 67 0 c44 0 66 4 66 12
0 16 -49 306 -59 348 -5 22 -10 30 -14 20z"/>
</g>
</svg>
